<svg width="35" height="35" viewBox="0 0 35 35" fill="none" xmlns="http://www.w3.org/2000/svg">
<path d="M26.3072 19.7611C25.6947 20.359 25.3447 21.2194 25.4322 22.1381C25.5634 23.7131 27.0072 24.8652 28.5822 24.8652H31.353V26.6006C31.353 29.6194 28.8884 32.084 25.8697 32.084H9.12799C6.10924 32.084 3.64465 29.6194 3.64465 26.6006V16.7861C3.64465 13.7673 6.10924 11.3027 9.12799 11.3027H25.8697C28.8884 11.3027 31.353 13.7673 31.353 16.7861V18.8861H28.4072C27.5905 18.8861 26.8467 19.2069 26.3072 19.7611Z" stroke="white" stroke-width="2.18" stroke-linecap="round" stroke-linejoin="round"/>
<path d="M3.64465 18.0975V11.433C3.64465 9.69755 4.70924 8.15165 6.32799 7.53915L17.9072 3.16415C19.7155 2.47874 21.6551 3.82045 21.6551 5.76003V11.3017" stroke="white" stroke-width="2.18" stroke-linecap="round" stroke-linejoin="round"/>
<path d="M32.8987 20.3723V23.3765C32.8987 24.1786 32.257 24.8348 31.4403 24.864H28.582C27.007 24.864 25.5633 23.7119 25.432 22.1369C25.3445 21.2181 25.6945 20.3577 26.307 19.7598C26.8466 19.2056 27.5903 18.8848 28.407 18.8848H31.4403C32.257 18.914 32.8987 19.5702 32.8987 20.3723Z" stroke="white" stroke-width="2.18" stroke-linecap="round" stroke-linejoin="round"/>
<path d="M10.2087 17.5H20.4171" stroke="white" stroke-width="2.18" stroke-linecap="round" stroke-linejoin="round"/>
</svg>
